# xmcd
#
# Track frame offsets:
#	150
#	13433
#	31368
#	45265
#	62233
#	77586
#	88639
#	110490
#	128158
#	142737
#
# Disc length: 2377 seconds
#
# Revision: 3
# Processed by: cddbd v1.5.2PL0 Copyright (c) Steve Scherf et al.
# Submitted via: EZCDAudioConverter 3.1.7.1
#
DISCID=7b09470a
DTITLE=Cookies 'N Beans - Tales From A Trailor Trash Soul
DYEAR=2007
DGENRE=Alternative Country
TTITLE0=TrainTrain
TTITLE1=Jolene
TTITLE2=I Lost It
TTITLE3=Together Again
TTITLE4=Can't Let Go
TTITLE5=The Pain Of Loving You
TTITLE6=Killing The Blues
TTITLE7=Drunken Angel
TTITLE8=Juanita
TTITLE9=SinWagon+Help Me Make It Through The Night
EXTD=
EXTT0=
EXTT1=
EXTT2=
EXTT3=
EXTT4=
EXTT5=
EXTT6=
EXTT7=
EXTT8=
EXTT9=
PLAYORDER=
